<?xml version="1.0" standalone="no"?>
<!DOCTYPE svg PUBLIC "-//W3C//DTD SVG 20010904//EN"
 "http://www.w3.org/TR/2001/REC-SVG-20010904/DTD/svg10.dtd">
<svg version="1.0" xmlns="http://www.w3.org/2000/svg"
 width="410.000000pt" height="256.000000pt" viewBox="0 0 410.000000 256.000000"
 preserveAspectRatio="xMidYMid meet">

<g transform="translate(0.000000,256.000000) scale(0.100000,-0.100000)"
fill="#000000" stroke="none">
<path d="M1785 1966 c-64 -20 -86 -35 -101 -72 -12 -29 -12 -39 0 -74 29 -83
137 -193 285 -288 52 -34 191 -102 207 -102 4 0 -23 21 -62 46 -150 101 -276
217 -333 308 -52 83 -37 116 58 137 62 13 130 5 187 -22 60 -29 140 -118 180
-202 26 -54 33 -63 28 -37 -18 98 -88 220 -153 264 -78 54 -202 72 -296 42z"/>
<path d="M1580 1831 c-75 -23 -141 -74 -154 -116 -8 -28 21 -78 68 -114 83
-66 255 -131 361 -138 l70 -4 -104 36 c-123 42 -223 93 -280 142 -58 49 -67
70 -44 95 22 25 77 53 121 63 23 5 32 12 30 23 -4 19 -31 24 -68 13z"/>
<path d="M2316 1630 c-32 -38 -42 -104 -26 -171 20 -81 68 -112 116 -73 18 14
18 15 -5 4 -56 -28 -97 35 -89 136 6 68 35 104 85 104 44 0 69 -14 87 -48 9
-15 15 -20 16 -12 1 43 -64 90 -124 90 -26 0 -40 -7 -60 -30z"/>
<path d="M1954 1415 c-104 -62 -153 -237 -104 -369 20 -51 97 -153 108 -141 3
2 -2 13 -10 22 -51 59 -102 233 -68 233 7 0 42 -16 77 -35 59 -32 66 -34 90
-21 l26 13 -41 30 c-22 17 -66 41 -96 54 -55 24 -68 44 -48 76 14 22 118 -24
203 -89 l36 -28 19 21 c19 21 19 22 -21 56 -22 19 -75 51 -118 72 -74 36 -77
38 -59 54 10 9 26 17 35 17 28 0 119 -45 169 -83 47 -36 56 -36 71 4 4 12 -8
26 -39 48 -41 30 -164 91 -181 91 -5 0 -26 -11 -49 -25z"/>
<path d="M2070 690 l0 -190 50 0 50 0 0 190 0 190 -50 0 -50 0 0 -190z"/>
<path d="M2220 690 l0 -190 50 0 c39 0 50 3 50 16 0 14 3 14 28 -2 35 -23 125
-24 169 0 46 23 67 60 67 116 0 56 -21 93 -67 117 -43 23 -135 23 -170 0 l-27
-17 0 75 0 75 -50 0 -50 0 0 -190z m253 -18 c22 -19 22 -60 0 -84 -22 -24
-109 -25 -135 -1 -36 33 -15 93 37 106 29 7 77 -3 98 -21z"/>
<path d="M846 752 c-80 -28 -114 -99 -83 -175 29 -67 115 -96 231 -77 73 12
84 21 60 52 -16 22 -21 23 -69 15 -57 -11 -126 0 -133 21 -3 9 26 12 118 12
l123 0 -6 46 c-11 101 -119 149 -241 106z m129 -64 c45 -20 29 -33 -42 -32
-73 1 -90 11 -52 31 30 16 61 16 94 1z"/>
<path d="M1280 763 c-8 -3 -23 -12 -32 -21 -16 -14 -18 -13 -18 1 0 13 -10 17
-45 17 l-45 0 0 -130 0 -130 45 0 45 0 0 80 c0 67 3 83 20 100 11 11 25 20 30
20 6 0 19 -9 30 -20 17 -17 20 -33 20 -100 l0 -80 45 0 45 0 0 69 c0 110 26
149 76 116 22 -14 24 -22 24 -100 l0 -85 51 0 51 0 -4 93 c-5 114 -22 151 -77
168 -43 13 -99 0 -122 -27 -10 -13 -15 -12 -34 6 -23 21 -79 34 -105 23z"/>
<path d="M1805 751 c-47 -25 -45 -25 -45 -6 0 11 -12 15 -45 15 l-45 0 0 -195
0 -195 45 0 45 0 0 80 c0 44 2 80 5 80 3 0 18 -8 32 -17 62 -41 193 -10 221
52 17 36 15 100 -3 135 -31 60 -141 86 -210 51z m93 -66 c29 -8 45 -47 33 -79
-11 -28 -29 -36 -81 -36 -52 0 -70 8 -81 36 -13 37 5 72 43 83 33 9 42 9 86
-4z"/>
<path d="M2735 761 c-78 -20 -115 -62 -115 -132 0 -115 128 -167 287 -118 l33
10 -21 28 c-19 27 -22 27 -74 18 -58 -11 -115 -1 -123 21 -3 9 26 12 117 12
119 0 121 0 121 23 -1 39 -37 105 -68 121 -36 19 -117 27 -157 17z m120 -81
c25 -21 8 -27 -62 -24 -89 3 -85 2 -78 15 19 29 109 35 140 9z"/>
<path d="M3105 761 c-72 -18 -115 -67 -115 -131 1 -102 100 -155 242 -130 34
7 66 14 71 17 4 2 -2 17 -12 32 -19 27 -22 27 -70 17 -55 -11 -122 0 -129 22
-3 9 25 12 118 12 l123 0 -6 40 c-7 51 -29 85 -68 105 -36 19 -112 27 -154 16z
m121 -82 c12 -10 13 -14 2 -19 -16 -9 -138 0 -138 10 0 28 105 35 136 9z"/>
</g>
</svg>
