<?xml version="1.0" encoding="utf-8"?>
<!-- Generator: Adobe Illustrator 28.0.0, SVG Export Plug-In . SVG Version: 6.00 Build 0)  -->
<svg version="1.1" id="Слой_1" xmlns="http://www.w3.org/2000/svg" xmlns:xlink="http://www.w3.org/1999/xlink" x="0px" y="0px"
	 viewBox="0 0 595.28 595.28" style="enable-background:new 0 0 595.28 595.28;" xml:space="preserve">
<style type="text/css">
	.st0{fill:#010202;}
	.st1{fill:#FFFFFF;}
	.st2{fill:#FFD000;}
</style>
<path class="st2" d="M355.92,297.4c8.83,16.5,4.33,40.23-5.07,43.71c-8.97,3.32-23.79-11.77-30.1-26.06
	c-5.75-13.02-7.91-33.24,0.58-38.06C329.72,272.21,348.45,283.45,355.92,297.4z"/>
<path class="st2" d="M303.44,275.87c0,0-12.22,53.98,33.68,79.56c0,0-15.22,17.04-41.52,1.59c-23.38-13.74-24.98-48.12-19.06-62.12
	c0.2-0.47,0.37-0.85,0.37-0.85C282.45,282.17,294.36,277.73,303.44,275.87z"/>
<path class="st2" d="M260.25,312.28c-0.01,5.99,0.78,17.35,7.02,29.71c5.08,10.05,11.68,16.62,15.99,20.29
	c-5.88-0.4-13.01-1.35-20.93-3.46c-7.28-1.94-13.49-4.39-18.51-6.75c0.8-5.09,2.2-11.18,4.67-17.82
	C251.98,324.86,256.45,317.53,260.25,312.28z"/>
<path class="st2" d="M281.18,273.53c-1.41,4.43-7.93,6.02-17.13,8.13c-10.41,2.39-17.73,4.08-25.95,2.59
	c-19.42-3.51-38.77-23.78-34.6-35.98c3.39-9.91,21.48-12.93,32.7-11.94c15.4,1.36,25.15,10.95,34.77,20.41
	C276.82,262.49,282.8,268.45,281.18,273.53z"/>
<path class="st2" d="M292.95,269.72c7.75-2.85,13-6.79,16.09-9.51c3.3-2.92,6.2-5.48,8.3-10.03c3.05-6.6,2.17-12.45,1.38-17.65
	c-0.2-1.34-0.55-2.9-1.73-4.32c-1.2-1.46-2.73-2.12-3.63-2.42c-2.03-0.23-5.43-0.34-9.17,1.04c-9.55,3.51-12.77,13.51-13.32,15.22
	c-1.57,4.88-1.25,8.96-0.86,13.84C290.47,261.8,291.83,266.56,292.95,269.72z"/>
</svg>
