<?xml version="1.0" encoding="utf-8"?>
<!-- Generator: Adobe Illustrator 28.0.0, SVG Export Plug-In . SVG Version: 6.00 Build 0)  -->
<svg version="1.1" id="Слой_1" xmlns="http://www.w3.org/2000/svg" xmlns:xlink="http://www.w3.org/1999/xlink" x="0px" y="0px"
	 viewBox="0 0 1000 1000" style="enable-background:new 0 0 1000 1000;" xml:space="preserve">
<style type="text/css">
	.st0{fill:#010202;}
	.st1{fill:#FFD000;}
	.st2{fill:#FFFFFF;}
</style>
<path class="st0" d="M956.9,517.43c54.44,101.72,26.71,248.01-31.28,269.47c-55.31,20.46-146.66-72.57-185.57-160.69
	c-35.43-80.25-48.76-204.91,3.56-234.63C795.4,362.15,910.88,431.45,956.9,517.43z"/>
<path class="st0" d="M633.4,384.7c0,0-75.37,332.81,207.61,490.51c0,0-93.85,105.08-255.96,9.81
	C440.9,800.3,431.04,588.38,467.56,502.02c1.22-2.88,2.3-5.21,2.3-5.21C503.96,423.51,577.41,396.14,633.4,384.7z"/>
<path class="st0" d="M367.13,609.15c-0.07,36.94,4.8,106.99,43.29,183.14c31.31,61.95,72.01,102.47,98.56,125.08
	c-36.22-2.45-80.23-8.34-129.05-21.33c-44.9-11.95-83.15-27.06-114.12-41.59c4.96-31.38,13.57-68.93,28.8-109.85
	C316.14,686.74,343.7,641.54,367.13,609.15z"/>
<path class="st0" d="M496.17,370.25c-8.72,27.32-48.91,37.09-105.58,50.13c-64.17,14.76-109.3,25.14-159.97,16
	C110.89,414.76-8.42,289.77,17.32,214.54c20.91-61.12,132.45-79.71,201.57-73.59c94.97,8.41,155.02,67.48,214.37,125.85
	C469.24,302.19,506.15,338.97,496.17,370.25z"/>
<path class="st0" d="M568.69,346.79c47.81-17.59,80.14-41.83,99.18-58.66c20.37-18,38.21-33.76,51.19-61.86
	c18.79-40.66,13.36-76.74,8.53-108.78c-1.25-8.28-3.4-17.87-10.67-26.66c-7.42-8.98-16.81-13.06-22.4-14.93
	c-12.5-1.42-33.45-2.07-56.52,6.4c-58.86,21.62-78.71,83.27-82.12,93.85c-9.69,30.08-7.7,55.26-5.33,85.32
	C553.44,297.96,561.81,327.29,568.69,346.79z"/>
</svg>
